<svg width="891" height="404" viewBox="0 0 891 404" fill="none" xmlns="http://www.w3.org/2000/svg">
<rect width="891" height="404" rx="15" fill="#0D1117"/>
<path d="M325.8 228.8C322.227 228.8 318.947 227.92 315.96 226.16C313.027 224.347 310.68 221.573 308.92 217.84C307.213 214.053 306.333 209.227 306.28 203.36C306.28 198.453 306.84 194.373 307.96 191.12C309.133 187.813 310.653 185.2 312.52 183.28C314.387 181.307 316.44 179.893 318.68 179.04C320.973 178.187 323.24 177.76 325.48 177.76C329.107 177.76 332.2 178.667 334.76 180.48C337.32 182.24 339.24 184.613 340.52 187.6L335.72 189.84L335 190.16L334.76 189.6C334.92 189.173 334.92 188.8 334.76 188.48C334.6 188.107 334.307 187.547 333.88 186.8C332.547 184.987 331.16 183.787 329.72 183.2C328.333 182.56 326.867 182.24 325.32 182.24C321.107 182.24 317.773 184.08 315.32 187.76C312.92 191.387 311.72 196.453 311.72 202.96C311.72 207.12 312.333 210.8 313.56 214C314.84 217.147 316.52 219.6 318.6 221.36C320.68 223.12 323 224 325.56 224C327.587 224 329.48 223.467 331.24 222.4C333.053 221.28 334.52 219.787 335.64 217.92L339.8 220.64C338.2 223.307 336.28 225.333 334.04 226.72C331.8 228.107 329.053 228.8 325.8 228.8ZM403 228.88C397.293 228.88 392.893 226.667 389.8 222.24C386.707 217.813 385.16 211.52 385.16 203.36C385.16 195.467 386.707 189.253 389.8 184.72C392.893 180.133 397.293 177.84 403 177.84C408.707 177.84 413.107 180.133 416.2 184.72C419.293 189.253 420.84 195.467 420.84 203.36C420.84 211.52 419.293 217.813 416.2 222.24C413.107 226.667 408.707 228.88 403 228.88ZM403 224C406.787 224 409.747 222.213 411.88 218.64C414.013 215.067 415.08 209.973 415.08 203.36C415.08 197.067 414.013 192.053 411.88 188.32C409.747 184.587 406.787 182.72 403 182.72C399.213 182.72 396.253 184.587 394.12 188.32C391.987 192.053 390.92 197.067 390.92 203.36C390.92 209.973 391.987 215.067 394.12 218.64C396.253 222.213 399.213 224 403 224ZM467.48 228V178.16H482.2C488.067 178.16 492.28 179.467 494.84 182.08C497.453 184.693 498.76 188.133 498.76 192.4C498.76 194.267 498.333 196.133 497.48 198C496.68 199.867 495.507 201.493 493.96 202.88C492.467 204.267 490.68 205.227 488.6 205.76L500.12 228H493.88L482.84 206H473.16V228H467.48ZM473.16 201.04H482.84C486.413 201.04 489 200.267 490.6 198.72C492.2 197.12 493 195.013 493 192.4C493 189.893 492.2 187.787 490.6 186.08C489 184.32 486.413 183.44 482.84 183.44H473.16V201.04ZM547.72 228V178.08H578.28V183.04H553V199.44H573.88V204.56H553V223.04H578.04V228H547.72Z" fill="white"/>
</svg>
