<svg width="891" height="404" viewBox="0 0 891 404" fill="none" xmlns="http://www.w3.org/2000/svg">
<rect width="891" height="404" rx="15" fill="#0D1117"/>
<path d="M135.96 228L130.92 213.44H114.84L109.8 228H104.28L122.68 177.28H123.32L141.72 228H135.96ZM122.92 190.08L116.36 209.12H129.48L122.92 190.08ZM202.76 228.8C196.307 228.8 191.107 226.693 187.16 222.48L190.04 217.44L190.36 216.72L190.92 217.04C191.027 217.413 191.16 217.84 191.32 218.32C191.48 218.747 191.853 219.28 192.44 219.92C193.827 221.093 195.427 222.027 197.24 222.72C199.107 223.413 201.213 223.76 203.56 223.76C206.547 223.76 209 222.933 210.92 221.28C212.893 219.573 213.88 217.547 213.88 215.2C213.88 213.653 213.56 212.347 212.92 211.28C212.333 210.213 211.213 209.173 209.56 208.16C207.96 207.147 205.587 205.973 202.44 204.64C197.267 202.613 193.693 200.347 191.72 197.84C189.747 195.333 188.76 192.667 188.76 189.84C188.76 186.16 190.12 183.2 192.84 180.96C195.56 178.667 199.267 177.52 203.96 177.52C206.68 177.52 209.24 178.08 211.64 179.2C214.04 180.267 216.093 181.787 217.8 183.76L214.2 188.56L213.72 188.24C213.667 187.813 213.56 187.387 213.4 186.96C213.24 186.533 212.867 186 212.28 185.36C211 184.133 209.64 183.307 208.2 182.88C206.76 182.4 205.053 182.16 203.08 182.16C200.467 182.16 198.387 182.88 196.84 184.32C195.293 185.76 194.52 187.467 194.52 189.44C194.52 190.933 194.84 192.267 195.48 193.44C196.173 194.56 197.4 195.68 199.16 196.8C200.92 197.92 203.48 199.147 206.84 200.48C210.093 201.813 212.627 203.173 214.44 204.56C216.253 205.893 217.533 207.36 218.28 208.96C219.027 210.507 219.4 212.32 219.4 214.4C219.4 216.693 218.813 218.96 217.64 221.2C216.52 223.387 214.733 225.2 212.28 226.64C209.827 228.08 206.653 228.8 202.76 228.8ZM282.76 228.8C276.307 228.8 271.107 226.693 267.16 222.48L270.04 217.44L270.36 216.72L270.92 217.04C271.027 217.413 271.16 217.84 271.32 218.32C271.48 218.747 271.853 219.28 272.44 219.92C273.827 221.093 275.427 222.027 277.24 222.72C279.107 223.413 281.213 223.76 283.56 223.76C286.547 223.76 289 222.933 290.92 221.28C292.893 219.573 293.88 217.547 293.88 215.2C293.88 213.653 293.56 212.347 292.92 211.28C292.333 210.213 291.213 209.173 289.56 208.16C287.96 207.147 285.587 205.973 282.44 204.64C277.267 202.613 273.693 200.347 271.72 197.84C269.747 195.333 268.76 192.667 268.76 189.84C268.76 186.16 270.12 183.2 272.84 180.96C275.56 178.667 279.267 177.52 283.96 177.52C286.68 177.52 289.24 178.08 291.64 179.2C294.04 180.267 296.093 181.787 297.8 183.76L294.2 188.56L293.72 188.24C293.667 187.813 293.56 187.387 293.4 186.96C293.24 186.533 292.867 186 292.28 185.36C291 184.133 289.64 183.307 288.2 182.88C286.76 182.4 285.053 182.16 283.08 182.16C280.467 182.16 278.387 182.88 276.84 184.32C275.293 185.76 274.52 187.467 274.52 189.44C274.52 190.933 274.84 192.267 275.48 193.44C276.173 194.56 277.4 195.68 279.16 196.8C280.92 197.92 283.48 199.147 286.84 200.48C290.093 201.813 292.627 203.173 294.44 204.56C296.253 205.893 297.533 207.36 298.28 208.96C299.027 210.507 299.4 212.32 299.4 214.4C299.4 216.693 298.813 218.96 297.64 221.2C296.52 223.387 294.733 225.2 292.28 226.64C289.827 228.08 286.653 228.8 282.76 228.8ZM347.72 228V178.08H378.28V183.04H353V199.44H373.88V204.56H353V223.04H378.04V228H347.72ZM426.28 228V178.16H430.68L443 202.56L455.56 178.08H459.8V228H454.52V190.4L443.72 210.48H441.56L431.48 190.64V228H426.28ZM506.84 228V178.16H521C526.76 178.16 530.947 179.28 533.56 181.52C536.227 183.76 537.56 186.667 537.56 190.24C537.56 192.587 536.92 194.8 535.64 196.88C534.36 198.96 532.547 200.427 530.2 201.28C533.027 202.24 535.293 203.92 537 206.32C538.707 208.667 539.56 211.227 539.56 214C539.56 218.213 538.067 221.6 535.08 224.16C532.093 226.72 527.373 228 520.92 228H506.84ZM512.36 198.8H520.2C524.627 198.8 527.693 198.053 529.4 196.56C531.107 195.067 531.96 193.173 531.96 190.88C531.96 188.693 531.133 186.827 529.48 185.28C527.827 183.68 525.027 182.88 521.08 182.88H512.36V198.8ZM512.36 223.12H521.88C525.347 223.12 528.173 222.427 530.36 221.04C532.547 219.6 533.64 217.147 533.64 213.68C533.64 210.693 532.653 208.267 530.68 206.4C528.76 204.48 525.373 203.52 520.52 203.52H512.36V223.12ZM588.28 178.16H594.84V178.72C594.52 179.04 594.307 179.387 594.2 179.76C594.147 180.133 594.12 180.773 594.12 181.68V223.2H618.12V228H588.28V178.16ZM667.72 228V178.08H698.28V183.04H673V199.44H693.88V204.56H673V223.04H698.04V228H667.72ZM747.48 228V178.16H762.2C768.067 178.16 772.28 179.467 774.84 182.08C777.453 184.693 778.76 188.133 778.76 192.4C778.76 194.267 778.333 196.133 777.48 198C776.68 199.867 775.507 201.493 773.96 202.88C772.467 204.267 770.68 205.227 768.6 205.76L780.12 228H773.88L762.84 206H753.16V228H747.48ZM753.16 201.04H762.84C766.413 201.04 769 200.267 770.6 198.72C772.2 197.12 773 195.013 773 192.4C773 189.893 772.2 187.787 770.6 186.08C769 184.32 766.413 183.44 762.84 183.44H753.16V201.04Z" fill="white"/>
</svg>
