<svg width="1423" height="378" viewBox="0 0 1423 378" fill="none" xmlns="http://www.w3.org/2000/svg">
<path d="M568 365C665.754 365 745 286.202 745 189C745 91.7979 665.754 13 568 13C470.246 13 391 91.7979 391 189C391 286.202 470.246 365 568 365Z" stroke="black" stroke-width="25"/>
<path d="M321.427 326.618C202.125 421.232 -7.89501 379.768 0.228944 178.438C7.64694 -5.39572 215.949 -39.8241 322 52.0991L303.385 73.1769C214.574 -9.71511 32.2999 25.5658 30.6082 179.521C23.9455 346.434 206.348 385.03 302.601 306.396L321.427 326.618Z" fill="black"/>
<path d="M811 375V226.882L974.554 224.177C1099.41 222.111 1097.24 29.1648 967.621 29.0964L811 29.014V3L972.457 3.52013C1031.94 3.71196 1091.05 49.7209 1093.61 116.651C1095.95 178.01 1072.46 221.176 1010.39 242.681L1097 375L1068.5 374.999L985.982 252.712H839.344L839.797 374.999L811 375Z" fill="#080908"/>
<path d="M1178 4V33H1423V4H1178Z" fill="black"/>
<path d="M1178 176V205H1423V176H1178Z" fill="black"/>
<path d="M1178 349V377H1423V349H1178Z" fill="black"/>
</svg>
