<svg width="1787" height="378" viewBox="0 0 1787 378" fill="none" xmlns="http://www.w3.org/2000/svg">
<path d="M0 0V237.41C9.52323 427.24 291.379 419.783 303 237.41V0H271.133V237.41C271.133 301.729 211.587 346.356 152.229 345.761C92.702 345.164 43.2771 311.471 33.9569 237.41V0H1.04483H0Z" fill="black"/>
<path d="M418 1V374H448.287V53.3115L700.412 374H724V1H693.191V322.666L448.287 1H418Z" fill="black"/>
<path d="M778 374L949.719 1H979.93L1152 374H1117.48L965.255 38.4068L812.949 374H778Z" fill="black"/>
<path d="M1128 0.000330492L1296.29 378L1322.78 377.517L1489 0H1459.62L1309.29 338.16L1161.57 0L1128 0.000330492Z" fill="black"/>
<path d="M1542 0V29H1787V0H1542Z" fill="black"/>
<path d="M1542 172V201H1787V172H1542Z" fill="black"/>
<path d="M1542 345V373H1787V345H1542Z" fill="black"/>
</svg>
